<?xml version="1.0" encoding="UTF-8"?><svg id="Layer_1" xmlns="http://www.w3.org/2000/svg" xmlns:xlink="http://www.w3.org/1999/xlink" viewBox="0 0 849 600"><defs><style>.cls-1{fill:url(#linear-gradient-2);}.cls-2{fill:url(#New_Gradient_Swatch_5);}.cls-3{fill:#fff;stroke:#000;stroke-miterlimit:10;stroke-width:.25px;}.cls-4{fill:url(#linear-gradient-5);}.cls-5{fill:none;}.cls-6{fill:url(#linear-gradient-3);}.cls-7{fill:url(#linear-gradient);}.cls-8{fill:url(#linear-gradient-4);}</style><linearGradient id="linear-gradient" x1="501.83" y1="221.57" x2="458.3" y2="272.93" gradientTransform="translate(938.91 561.6) rotate(-180)" gradientUnits="userSpaceOnUse"><stop offset="0" stop-color="#69c9ca"/><stop offset="1" stop-color="#2684c6"/></linearGradient><linearGradient id="linear-gradient-2" x1="468.8" y1="255.14" x2="466.2" y2="342.41" gradientTransform="translate(938.91 561.6) rotate(-180)" gradientUnits="userSpaceOnUse"><stop offset="0" stop-color="#6fc8c4"/><stop offset="1" stop-color="#2684c6"/></linearGradient><linearGradient id="linear-gradient-3" x1="578.13" y1="216.86" x2="534.6" y2="268.22" gradientTransform="translate(-257.56)" gradientUnits="userSpaceOnUse"><stop offset="0" stop-color="#6fc8c4"/><stop offset="1" stop-color="#2684c6"/></linearGradient><linearGradient id="linear-gradient-4" x1="545.1" y1="250.43" x2="542.5" y2="337.69" xlink:href="#linear-gradient-3"/><linearGradient id="New_Gradient_Swatch_5" x1="331.59" y1="278.35" x2="427.17" y2="278.35" gradientUnits="userSpaceOnUse"><stop offset="0" stop-color="#69c18f"/><stop offset="1" stop-color="#2f828d"/></linearGradient><linearGradient id="linear-gradient-5" x1="518.68" y1="276.35" x2="598.46" y2="276.35" gradientUnits="userSpaceOnUse"><stop offset="0" stop-color="#69c18f"/><stop offset="1" stop-color="#2f828d"/></linearGradient></defs><line class="cls-5" y1="600" x2="849"/><circle class="cls-3" cx="428" cy="297" r="200"/><g><path class="cls-7" d="M442.05,344.38l65.94-65.94h-32.19l-33.75,33.75c-8.89,8.89-8.89,23.3,0,32.19h0Z"/><path class="cls-1" d="M442.05,212.5c-8.89,8.89-8.89,23.3,0,32.19h0s33.75,33.75,33.75,33.75c0,0,0,0,0,0,8.89,8.89,8.89,23.3,0,32.19l32.19-32.19-65.94-65.94s0,0,0,0h0s0,0,0,0Z"/></g><g><path class="cls-6" d="M315.59,212.5l-65.94,65.94h32.19l33.75-33.75c8.89-8.89,8.89-23.3,0-32.19h0Z"/><path class="cls-8" d="M315.59,344.38c8.89-8.89,8.89-23.3,0-32.19h0s-33.75-33.75-33.75-33.75c0,0,0,0,0,0-8.89-8.89-8.89-23.3,0-32.19l-32.19,32.19,65.94,65.94s0,0,0,0h0s0,0,0,0Z"/></g><path class="cls-2" d="M398.32,251.32v90.55h-37.79v-90.55h-28.94v-36.48h95.58v36.48h-28.85Z"/><path class="cls-4" d="M518.68,212.5h28.99v103.46h50.78v24.25h-79.77v-127.71Z"/><g><path d="M269.97,374.28l-1.3,4.67h-4.26l5.56-18.19h5.4l5.64,18.19h-4.43l-1.4-4.67h-5.21Zm4.62-3.08l-1.13-3.86c-.32-1.08-.65-2.43-.92-3.51h-.05c-.27,1.08-.54,2.46-.84,3.51l-1.08,3.86h4.02Z"/><path d="M283.15,359.78h4.1v19.17h-4.1v-19.17Z"/><path d="M298.08,378.95l-.24-1.32h-.08c-.86,1.05-2.21,1.62-3.78,1.62-2.67,0-4.27-1.94-4.27-4.05,0-3.43,3.08-5.07,7.75-5.05v-.19c0-.7-.38-1.7-2.4-1.7-1.35,0-2.78,.46-3.64,1l-.76-2.65c.92-.51,2.73-1.16,5.13-1.16,4.4,0,5.8,2.59,5.8,5.7v4.59c0,1.27,.05,2.48,.19,3.21h-3.7Zm-.49-6.24c-2.16-.03-3.83,.49-3.83,2.08,0,1.05,.7,1.57,1.62,1.57,1.03,0,1.86-.68,2.13-1.51,.05-.22,.08-.46,.08-.7v-1.43Z"/><path d="M304.83,369.96c0-1.65-.05-3.05-.11-4.21h3.56l.19,1.81h.08c.54-.84,1.89-2.11,4.08-2.11,2.7,0,4.72,1.78,4.72,5.67v7.83h-4.1v-7.32c0-1.7-.59-2.86-2.08-2.86-1.13,0-1.81,.78-2.08,1.54-.11,.24-.16,.65-.16,1.03v7.61h-4.1v-8.99Z"/><path d="M328.7,364.21h-4.89v-3.46h13.98v3.46h-4.97v14.74h-4.13v-14.74Z"/><path d="M350.84,374.71c0,1.73,.05,3.13,.11,4.24h-3.56l-.19-1.86h-.08c-.51,.81-1.75,2.16-4.13,2.16-2.67,0-4.64-1.67-4.64-5.75v-7.75h4.13v7.1c0,1.92,.62,3.08,2.05,3.08,1.13,0,1.78-.78,2.05-1.43,.11-.24,.14-.57,.14-.89v-7.85h4.13v8.96Z"/><path d="M354.13,370.09c0-1.94-.05-3.21-.11-4.35h3.54l.13,2.43h.11c.67-1.92,2.29-2.73,3.56-2.73,.38,0,.57,0,.86,.05v3.86c-.3-.05-.65-.11-1.11-.11-1.51,0-2.54,.81-2.81,2.08-.05,.27-.08,.59-.08,.92v6.69h-4.1v-8.85Z"/><path d="M368.63,362.08c0,1.13-.86,2.05-2.21,2.05s-2.16-.92-2.13-2.05c-.03-1.19,.84-2.08,2.16-2.08s2.16,.89,2.19,2.08Zm-4.24,16.87v-13.2h4.1v13.2h-4.1Z"/><path d="M371.79,369.96c0-1.65-.05-3.05-.11-4.21h3.56l.19,1.81h.08c.54-.84,1.89-2.11,4.08-2.11,2.7,0,4.72,1.78,4.72,5.67v7.83h-4.1v-7.32c0-1.7-.59-2.86-2.08-2.86-1.13,0-1.81,.78-2.08,1.54-.11,.24-.16,.65-.16,1.03v7.61h-4.1v-8.99Z"/><path d="M400.22,365.75c-.05,.84-.11,1.94-.11,3.91v7.37c0,2.54-.51,4.62-2,5.94-1.46,1.24-3.43,1.62-5.37,1.62-1.73,0-3.56-.35-4.75-1.03l.81-3.1c.84,.49,2.29,1,3.83,1,1.94,0,3.43-1.05,3.43-3.48v-.86h-.05c-.78,1.11-2.05,1.73-3.56,1.73-3.27,0-5.59-2.64-5.59-6.45,0-4.24,2.75-6.94,5.99-6.94,1.81,0,2.94,.78,3.62,1.86h.05l.13-1.57h3.56Zm-4.21,5.37c0-.27-.03-.54-.08-.76-.3-1.08-1.08-1.81-2.21-1.81-1.48,0-2.7,1.35-2.7,3.75,0,1.97,.97,3.51,2.7,3.51,1.05,0,1.89-.7,2.16-1.67,.11-.3,.14-.73,.14-1.08v-1.94Z"/><path d="M420.58,378.95c-.38-.41-.76-.81-1.19-1.3-1.19,.92-2.83,1.59-4.99,1.59-4.4,0-6.34-2.62-6.34-5.16,0-2.4,1.38-4.13,3.46-5.21v-.11c-.78-.86-1.38-2.21-1.38-3.51,0-2.29,1.81-4.8,5.45-4.8,2.81,0,4.94,1.65,4.94,4.26,0,1.84-1.08,3.4-3.59,4.67l-.03,.11c1.05,1.16,2.16,2.48,3.05,3.4,.73-1.13,1.3-2.81,1.54-4.43h3.67c-.49,2.75-1.4,5.1-3.02,6.91,1.03,1.16,2.08,2.35,3.21,3.56h-4.78Zm-3.1-3.59c-1.13-1.13-2.62-2.78-4.1-4.45-.76,.54-1.43,1.32-1.43,2.51,0,1.54,1.16,2.86,3.02,2.86,1.08,0,1.97-.41,2.51-.92Zm-3.67-10.47c0,.92,.43,1.73,1.24,2.62,1.32-.92,2-1.62,2-2.67,0-.86-.51-1.81-1.59-1.81s-1.65,.92-1.65,1.86Z"/><path d="M436.99,374.28l-1.3,4.67h-4.26l5.56-18.19h5.4l5.64,18.19h-4.43l-1.4-4.67h-5.21Zm4.62-3.08l-1.13-3.86c-.32-1.08-.65-2.43-.92-3.51h-.05c-.27,1.08-.54,2.46-.84,3.51l-1.08,3.86h4.02Z"/><path d="M462.75,359.78v15.22c0,1.49,.05,3.05,.11,3.94h-3.64l-.19-1.94h-.05c-.84,1.48-2.43,2.24-4.13,2.24-3.13,0-5.64-2.67-5.64-6.78-.03-4.45,2.75-7.02,5.91-7.02,1.62,0,2.89,.57,3.48,1.48h.05v-7.15h4.1Zm-4.1,11.55c0-.22-.03-.51-.05-.73-.24-1.11-1.13-2.02-2.4-2.02-1.86,0-2.83,1.67-2.83,3.75,0,2.24,1.11,3.64,2.81,3.64,1.19,0,2.13-.81,2.38-1.97,.08-.3,.11-.59,.11-.95v-1.73Z"/><path d="M473.55,378.95l-.24-1.32h-.08c-.86,1.05-2.21,1.62-3.78,1.62-2.67,0-4.26-1.94-4.26-4.05,0-3.43,3.08-5.07,7.75-5.05v-.19c0-.7-.38-1.7-2.4-1.7-1.35,0-2.78,.46-3.64,1l-.76-2.65c.92-.51,2.73-1.16,5.13-1.16,4.4,0,5.8,2.59,5.8,5.7v4.59c0,1.27,.05,2.48,.19,3.21h-3.7Zm-.49-6.24c-2.16-.03-3.83,.49-3.83,2.08,0,1.05,.7,1.57,1.62,1.57,1.03,0,1.86-.68,2.13-1.51,.05-.22,.08-.46,.08-.7v-1.43Z"/><path d="M485.89,360.75h4.13v14.74h7.23v3.46h-11.36v-18.19Z"/><path d="M512.35,372.2c0,4.83-3.43,7.04-6.96,7.04-3.86,0-6.83-2.54-6.83-6.8s2.81-6.99,7.04-6.99,6.75,2.78,6.75,6.75Zm-9.55,.13c0,2.27,.94,3.97,2.7,3.97,1.59,0,2.62-1.59,2.62-3.97,0-1.97-.76-3.97-2.62-3.97-1.97,0-2.7,2.02-2.7,3.97Z"/><path d="M517.7,365.75l1.78,6.13c.32,1.11,.57,2.16,.76,3.21h.08c.22-1.08,.43-2.08,.73-3.21l1.7-6.13h4.32l-4.91,13.2h-4.1l-4.8-13.2h4.45Z"/><path d="M531.71,373.66c.13,1.7,1.81,2.51,3.72,2.51,1.4,0,2.54-.19,3.64-.54l.54,2.78c-1.35,.54-3,.81-4.78,.81-4.48,0-7.04-2.59-7.04-6.72,0-3.35,2.08-7.04,6.67-7.04,4.27,0,5.88,3.32,5.88,6.59,0,.7-.08,1.32-.13,1.62h-8.5Zm4.83-2.81c0-1-.43-2.67-2.32-2.67-1.73,0-2.43,1.57-2.54,2.67h4.86Z"/><path d="M542.81,359.78h4.1v19.17h-4.1v-19.17Z"/><path d="M557.74,378.95l-.24-1.32h-.08c-.86,1.05-2.21,1.62-3.78,1.62-2.67,0-4.26-1.94-4.26-4.05,0-3.43,3.08-5.07,7.75-5.05v-.19c0-.7-.38-1.7-2.4-1.7-1.35,0-2.78,.46-3.64,1l-.76-2.65c.92-.51,2.73-1.16,5.13-1.16,4.4,0,5.8,2.59,5.8,5.7v4.59c0,1.27,.05,2.48,.19,3.21h-3.7Zm-.49-6.24c-2.16-.03-3.83,.49-3.83,2.08,0,1.05,.7,1.57,1.62,1.57,1.03,0,1.86-.68,2.13-1.51,.05-.22,.08-.46,.08-.7v-1.43Z"/><path d="M574.39,378.62c-.73,.32-2.11,.59-3.67,.59-4.26,0-6.99-2.59-6.99-6.75,0-3.86,2.65-7.02,7.56-7.02,1.08,0,2.27,.19,3.13,.51l-.65,3.05c-.49-.22-1.21-.4-2.29-.4-2.16,0-3.56,1.54-3.54,3.7,0,2.43,1.62,3.7,3.62,3.7,.97,0,1.73-.16,2.35-.4l.49,3.02Z"/><path d="M579.53,373.66c.13,1.7,1.81,2.51,3.72,2.51,1.4,0,2.54-.19,3.64-.54l.54,2.78c-1.35,.54-3,.81-4.78,.81-4.48,0-7.04-2.59-7.04-6.72,0-3.35,2.08-7.04,6.67-7.04,4.27,0,5.88,3.32,5.88,6.59,0,.7-.08,1.32-.13,1.62h-8.5Zm4.83-2.81c0-1-.43-2.67-2.32-2.67-1.73,0-2.43,1.57-2.54,2.67h4.86Z"/></g></svg>