<?xml version="1.0" encoding="UTF-8"?><svg id="Layer_1" xmlns="http://www.w3.org/2000/svg" xmlns:xlink="http://www.w3.org/1999/xlink" viewBox="0 0 849 600"><defs><style>.cls-1{fill:url(#New_Gradient_Swatch_2-2);}.cls-2{fill:url(#New_Gradient_Swatch_5);}.cls-3{fill:url(#New_Gradient_Swatch_2-4);}.cls-4{fill:#fff;stroke:#000;stroke-miterlimit:10;stroke-width:.25px;}.cls-5{fill:url(#New_Gradient_Swatch_5-2);}.cls-6{fill:url(#New_Gradient_Swatch_2);}.cls-7{fill:url(#New_Gradient_Swatch_2-3);}.cls-8{fill:none;}</style><linearGradient id="New_Gradient_Swatch_2" x1="497.83" y1="202.57" x2="454.3" y2="253.93" gradientTransform="translate(938.91 561.6) rotate(-180)" gradientUnits="userSpaceOnUse"><stop offset="0" stop-color="#6fc8c4"/><stop offset="1" stop-color="#2684c6"/></linearGradient><linearGradient id="New_Gradient_Swatch_2-2" x1="464.8" y1="236.14" x2="462.2" y2="323.41" xlink:href="#New_Gradient_Swatch_2"/><linearGradient id="New_Gradient_Swatch_2-3" x1="582.13" y1="235.86" x2="538.6" y2="287.22" gradientTransform="translate(-257.56)" xlink:href="#New_Gradient_Swatch_2"/><linearGradient id="New_Gradient_Swatch_2-4" x1="549.1" y1="269.43" x2="546.5" y2="356.69" gradientTransform="translate(-257.56)" xlink:href="#New_Gradient_Swatch_2"/><linearGradient id="New_Gradient_Swatch_5" x1="335.59" y1="297.35" x2="431.17" y2="297.35" gradientUnits="userSpaceOnUse"><stop offset="0" stop-color="#69c18f"/><stop offset="1" stop-color="#2f828d"/></linearGradient><linearGradient id="New_Gradient_Swatch_5-2" x1="522.68" y1="295.35" x2="602.46" y2="295.35" xlink:href="#New_Gradient_Swatch_5"/></defs><line class="cls-8" y1="600" x2="849"/><circle class="cls-4" cx="428" cy="297" r="200"/><g><path class="cls-6" d="M446.05,363.38l65.94-65.94h-32.19l-33.75,33.75c-8.89,8.89-8.89,23.3,0,32.19h0Z"/><path class="cls-1" d="M446.05,231.5c-8.89,8.89-8.89,23.3,0,32.19h0s33.75,33.75,33.75,33.75c0,0,0,0,0,0,8.89,8.89,8.89,23.3,0,32.19l32.19-32.19-65.94-65.94s0,0,0,0h0s0,0,0,0Z"/></g><g><path class="cls-7" d="M319.59,231.5l-65.94,65.94h32.19l33.75-33.75c8.89-8.89,8.89-23.3,0-32.19h0Z"/><path class="cls-3" d="M319.59,363.38c8.89-8.89,8.89-23.3,0-32.19h0s-33.75-33.75-33.75-33.75c0,0,0,0,0,0-8.89-8.89-8.89-23.3,0-32.19l-32.19,32.19,65.94,65.94s0,0,0,0h0s0,0,0,0Z"/></g><path class="cls-2" d="M402.32,270.32v90.55h-37.79v-90.55h-28.94v-36.48h95.58v36.48h-28.85Z"/><path class="cls-5" d="M522.68,231.5h28.99v103.46h50.78v24.25h-79.77v-127.71Z"/></svg>