<?xml version="1.0" encoding="UTF-8"?><svg id="Layer_1" xmlns="http://www.w3.org/2000/svg" xmlns:xlink="http://www.w3.org/1999/xlink" viewBox="0 0 849 600"><defs><style>.cls-1{fill:url(#New_Gradient_Swatch_2-2);}.cls-2{fill:url(#New_Gradient_Swatch_5);}.cls-3{fill:url(#New_Gradient_Swatch_2-4);}.cls-4{letter-spacing:0em;}.cls-5{fill:#fff;stroke:#000;stroke-miterlimit:10;stroke-width:.25px;}.cls-6{fill:url(#New_Gradient_Swatch_5-2);}.cls-7{letter-spacing:-.01em;}.cls-8{letter-spacing:-.05em;}.cls-9{fill:url(#New_Gradient_Swatch_2);}.cls-10{font-family:MyriadPro-Bold, 'Myriad Pro';font-size:27px;}.cls-11{fill:url(#New_Gradient_Swatch_2-3);}.cls-12{fill:none;}.cls-13{letter-spacing:-.04em;}.cls-14{letter-spacing:0em;}.cls-15{letter-spacing:-.02em;}.cls-16{letter-spacing:-.01em;}</style><linearGradient id="New_Gradient_Swatch_2" x1="501.83" y1="221.57" x2="458.3" y2="272.93" gradientTransform="translate(938.91 561.6) rotate(-180)" gradientUnits="userSpaceOnUse"><stop offset="0" stop-color="#6fc8c4"/><stop offset="1" stop-color="#2684c6"/></linearGradient><linearGradient id="New_Gradient_Swatch_2-2" x1="468.8" y1="255.14" x2="466.2" y2="342.41" xlink:href="#New_Gradient_Swatch_2"/><linearGradient id="New_Gradient_Swatch_2-3" x1="578.13" y1="216.86" x2="534.6" y2="268.22" gradientTransform="translate(-257.56)" xlink:href="#New_Gradient_Swatch_2"/><linearGradient id="New_Gradient_Swatch_2-4" x1="545.1" y1="250.43" x2="542.5" y2="337.69" gradientTransform="translate(-257.56)" xlink:href="#New_Gradient_Swatch_2"/><linearGradient id="New_Gradient_Swatch_5" x1="331.59" y1="278.35" x2="427.17" y2="278.35" gradientUnits="userSpaceOnUse"><stop offset="0" stop-color="#69c18f"/><stop offset="1" stop-color="#2f828d"/></linearGradient><linearGradient id="New_Gradient_Swatch_5-2" x1="518.68" y1="276.35" x2="598.46" y2="276.35" xlink:href="#New_Gradient_Swatch_5"/></defs><line class="cls-12" y1="600" x2="849"/><circle class="cls-5" cx="428" cy="297" r="200"/><g><path class="cls-9" d="M442.05,344.38l65.94-65.94h-32.19l-33.75,33.75c-8.89,8.89-8.89,23.3,0,32.19h0Z"/><path class="cls-1" d="M442.05,212.5c-8.89,8.89-8.89,23.3,0,32.19h0s33.75,33.75,33.75,33.75c0,0,0,0,0,0,8.89,8.89,8.89,23.3,0,32.19l32.19-32.19-65.94-65.94s0,0,0,0h0s0,0,0,0Z"/></g><g><path class="cls-11" d="M315.59,212.5l-65.94,65.94h32.19l33.75-33.75c8.89-8.89,8.89-23.3,0-32.19h0Z"/><path class="cls-3" d="M315.59,344.38c8.89-8.89,8.89-23.3,0-32.19h0s-33.75-33.75-33.75-33.75c0,0,0,0,0,0-8.89-8.89-8.89-23.3,0-32.19l-32.19,32.19,65.94,65.94s0,0,0,0h0s0,0,0,0Z"/></g><path class="cls-2" d="M398.32,251.32v90.55h-37.79v-90.55h-28.94v-36.48h95.58v36.48h-28.85Z"/><path class="cls-6" d="M518.68,212.5h28.99v103.46h50.78v24.25h-79.77v-127.71Z"/><text class="cls-10" transform="translate(258.5 378.95)"><tspan x="0" y="0"> </tspan><tspan class="cls-4" x="5.45" y="0">A</tspan><tspan x="23" y="0">lan</tspan><tspan class="cls-13" x="60.51" y="0"> </tspan><tspan class="cls-8" x="64.91" y="0">T</tspan><tspan x="78.25" y="0">uring &amp; </tspan><tspan class="cls-7" x="172.47" y="0">A</tspan><tspan x="189.81" y="0">da </tspan><tspan class="cls-14" x="225.61" y="0">Lo</tspan><tspan class="cls-15" x="254.5" y="0">v</tspan><tspan x="268.41" y="0">ela</tspan><tspan class="cls-16" x="304.34" y="0">c</tspan><tspan x="316.22" y="0">e </tspan></text></svg>